<?xml version="1.0" encoding="iso-8859-1"?>
<!-- Generator: Adobe Illustrator 19.0.0, SVG Export Plug-In . SVG Version: 6.00 Build 0)  -->
<svg version="1.1" id="Layer_1" xmlns="http://www.w3.org/2000/svg" xmlns:xlink="http://www.w3.org/1999/xlink" x="0px" y="0px"
	 viewBox="0 0 512.001 512.001" style="enable-background:new 0 0 512.001 512.001;" xml:space="preserve">
<g>
	<g>
		<circle cx="325.458" cy="427.03" r="8.17"/>
	</g>
</g>
<g>
	<g>
		<circle cx="298.224" cy="448.818" r="8.17"/>
	</g>
</g>
<g>
	<g>
		<path d="M152.06,226.707l-35.404-59.915c-1.471-2.487-4.145-4.014-7.034-4.014s-5.563,1.526-7.034,4.014l-35.404,59.915
			c-1.492,2.525-1.516,5.657-0.062,8.205s4.162,4.121,7.096,4.121h70.808c2.934,0,5.642-1.574,7.096-4.121
			C153.575,232.364,153.552,229.232,152.06,226.707z M88.535,222.692l21.086-35.685l21.086,35.685H88.535z"/>
	</g>
</g>
<g>
	<g>
		<path d="M320.911,226.707l-35.404-59.915c-1.471-2.487-4.145-4.014-7.034-4.014c-2.889,0-5.563,1.526-7.034,4.014l-35.404,59.915
			c-1.492,2.525-1.516,5.657-0.062,8.205s4.162,4.121,7.096,4.121h70.809c2.934,0,5.642-1.574,7.096-4.121
			C322.426,232.364,322.403,229.232,320.911,226.707z M257.386,222.692l21.086-35.685l21.086,35.685H257.386z"/>
	</g>
</g>
<g>
	<g>
		<path d="M265.188,300.923c-1.533-1.533-3.611-2.394-5.779-2.394H128.685c-4.51,0-8.167,3.654-8.17,8.165
			c-0.013,19.649,7.624,38.116,21.506,52c13.873,13.875,32.332,21.525,51.977,21.538c0.004,0.001,0.052,0,0.057,0
			c40.514,0,73.497-32.983,73.524-73.526C267.58,304.536,266.72,302.457,265.188,300.923z M194.049,363.89v8.17l-0.04-8.17
			c-15.284-0.01-29.643-5.959-40.433-16.75c-8.846-8.847-14.431-20.09-16.152-32.271h21.219v8.17c0,4.513,3.658,8.17,8.17,8.17
			s8.17-3.657,8.17-8.17v-8.17h38.128v8.17c0,4.513,3.658,8.17,8.17,8.17s8.17-3.657,8.17-8.17v-8.17h21.2
			C246.657,342.549,222.789,363.89,194.049,363.89z"/>
	</g>
</g>
<g>
	<g>
		<path d="M220.144,258.968l-19.064-32.261c-1.471-2.487-4.145-4.014-7.034-4.014s-5.563,1.526-7.034,4.014l-19.064,32.261
			c-2.294,3.885-1.005,8.895,2.878,11.19c3.885,2.297,8.895,1.007,11.19-2.878l12.03-20.358l12.03,20.358
			c1.525,2.581,4.246,4.015,7.042,4.015c1.412,0,2.844-0.367,4.148-1.137C221.15,267.863,222.439,262.853,220.144,258.968z"/>
	</g>
</g>
<g>
	<g>
		<path d="M512,8.171c0-3.305-1.991-6.286-5.045-7.549c-3.055-1.263-6.568-0.564-8.904,1.775l-25.198,25.221L447.657,2.396
			c-0.001-0.001-0.002-0.001-0.002-0.001c-0.188-0.188-0.386-0.367-0.59-0.536c-0.053-0.044-0.11-0.081-0.164-0.123
			c-0.157-0.122-0.313-0.244-0.478-0.354c-0.049-0.033-0.101-0.06-0.151-0.092c-0.175-0.112-0.353-0.222-0.537-0.321
			c-0.033-0.017-0.068-0.032-0.1-0.048c-0.204-0.106-0.411-0.206-0.624-0.295c-0.021-0.009-0.043-0.014-0.063-0.023
			c-0.224-0.091-0.453-0.175-0.687-0.246c-0.026-0.008-0.053-0.013-0.08-0.021c-0.228-0.066-0.459-0.127-0.694-0.174
			c-0.064-0.013-0.13-0.019-0.193-0.029c-0.198-0.035-0.397-0.07-0.6-0.089c-0.269-0.028-0.541-0.042-0.815-0.042
			s-0.546,0.014-0.816,0.041c-0.204,0.02-0.402,0.055-0.6,0.089c-0.064,0.011-0.13,0.016-0.193,0.029
			c-0.235,0.047-0.466,0.108-0.694,0.174c-0.026,0.008-0.053,0.012-0.08,0.021c-0.234,0.071-0.463,0.155-0.687,0.246
			c-0.021,0.009-0.042,0.014-0.063,0.023c-0.214,0.088-0.419,0.19-0.624,0.295c-0.033,0.017-0.068,0.031-0.1,0.048
			c-0.184,0.099-0.362,0.209-0.537,0.321c-0.05,0.032-0.102,0.059-0.151,0.091c-0.164,0.111-0.321,0.232-0.478,0.354
			c-0.054,0.043-0.111,0.08-0.164,0.123c-0.205,0.169-0.402,0.348-0.59,0.535c-0.001,0.001-0.002,0.001-0.002,0.001L410.9,27.616
			L385.704,2.397c-0.19-0.19-0.389-0.369-0.596-0.54c-0.034-0.028-0.071-0.051-0.106-0.079c-0.174-0.138-0.351-0.273-0.536-0.398
			c-0.04-0.027-0.083-0.049-0.123-0.075c-0.184-0.119-0.37-0.234-0.564-0.338c-0.026-0.014-0.054-0.025-0.081-0.039
			c-0.209-0.109-0.423-0.212-0.643-0.304c-0.016-0.007-0.034-0.012-0.05-0.018c-0.229-0.094-0.462-0.179-0.701-0.252
			c-0.023-0.007-0.047-0.011-0.07-0.018c-0.231-0.068-0.464-0.129-0.703-0.177c-0.063-0.013-0.127-0.017-0.191-0.029
			c-0.199-0.035-0.398-0.07-0.602-0.09c-0.27-0.024-0.543-0.038-0.816-0.038s-0.546,0.014-0.816,0.041
			c-0.204,0.021-0.403,0.055-0.602,0.09c-0.063,0.011-0.127,0.016-0.191,0.029c-0.239,0.048-0.472,0.109-0.703,0.176
			c-0.023,0.007-0.047,0.011-0.07,0.019c-0.239,0.073-0.472,0.158-0.701,0.252c-0.016,0.007-0.034,0.011-0.05,0.019
			c-0.22,0.091-0.432,0.194-0.643,0.304c-0.026,0.014-0.054,0.025-0.081,0.039c-0.194,0.105-0.38,0.219-0.564,0.338
			c-0.04,0.026-0.083,0.048-0.123,0.075c-0.185,0.124-0.363,0.259-0.536,0.398c-0.035,0.027-0.072,0.051-0.106,0.08
			c-0.207,0.17-0.406,0.351-0.596,0.54l-25.199,25.218L323.743,2.396c-1.533-1.534-3.611-2.396-5.78-2.396
			c-2.169,0-4.247,0.862-5.78,2.396l-25.2,25.222L261.779,2.395c-1.533-1.533-3.611-2.394-5.779-2.394
			c-2.168,0-4.246,0.862-5.779,2.396l-25.198,25.221L199.827,2.396c-1.533-1.534-3.612-2.396-5.78-2.396s-4.247,0.862-5.78,2.396
			l-25.195,25.221L137.873,2.396c-1.533-1.534-3.611-2.396-5.78-2.396c-2.169,0-4.247,0.862-5.78,2.396l-25.198,25.222L75.913,2.396
			c-1.533-1.534-3.611-2.396-5.78-2.396s-4.247,0.862-5.78,2.396L39.154,27.619L13.949,2.395c-2.337-2.337-5.852-3.036-8.904-1.773
			C1.991,1.885,0,4.866,0,8.171v495.66c0,4.513,3.658,8.17,8.17,8.17h495.66c0,0,0,0,0.001,0h0.001c0.264,0,0.527-0.014,0.79-0.04
			c0.1-0.01,0.197-0.027,0.295-0.04c0.16-0.022,0.32-0.042,0.48-0.073c0.114-0.022,0.226-0.051,0.338-0.078
			c0.141-0.034,0.282-0.068,0.422-0.108c0.113-0.034,0.224-0.073,0.336-0.111c0.135-0.047,0.27-0.094,0.404-0.148
			c0.109-0.044,0.215-0.093,0.32-0.142c0.131-0.059,0.259-0.12,0.388-0.186c0.105-0.055,0.207-0.113,0.31-0.173
			c0.122-0.071,0.243-0.142,0.362-0.219c0.105-0.069,0.206-0.141,0.307-0.212c0.108-0.077,0.216-0.156,0.32-0.24
			c0.107-0.085,0.209-0.173,0.31-0.263c0.06-0.052,0.122-0.098,0.181-0.153c0.035-0.032,0.063-0.068,0.097-0.1
			c0.107-0.102,0.209-0.21,0.31-0.319c0.086-0.093,0.172-0.184,0.254-0.279c0.087-0.102,0.168-0.208,0.249-0.315
			c0.083-0.108,0.167-0.215,0.244-0.326c0.071-0.103,0.136-0.21,0.203-0.317c0.074-0.119,0.15-0.236,0.218-0.358
			c0.062-0.111,0.117-0.225,0.173-0.34c0.06-0.122,0.123-0.243,0.176-0.367c0.053-0.123,0.099-0.251,0.147-0.377
			c0.045-0.12,0.093-0.239,0.132-0.359c0.044-0.133,0.078-0.269,0.114-0.404c0.033-0.121,0.066-0.242,0.094-0.364
			c0.029-0.133,0.05-0.267,0.073-0.402c0.022-0.132,0.045-0.263,0.06-0.395c0.015-0.125,0.023-0.253,0.032-0.38
			c0.011-0.146,0.02-0.292,0.022-0.439c0.001-0.048,0.008-0.094,0.008-0.142V8.171H512z M371.753,495.66H16.34V27.906l17.034,17.046
			c1.533,1.533,3.611,2.394,5.78,2.394c2.168,0,4.246-0.862,5.779-2.396L70.133,19.73l25.201,25.221
			c1.533,1.534,3.611,2.396,5.78,2.396c2.169,0,4.247-0.862,5.78-2.396l25.199-25.221l25.199,25.221
			c1.533,1.534,3.611,2.396,5.78,2.396c2.168,0,4.247-0.862,5.78-2.396l25.195-25.22l25.194,25.22
			c1.533,1.534,3.611,2.396,5.78,2.396c2.168,0,4.247-0.862,5.78-2.396L256,19.73l25.205,25.222c1.533,1.533,3.611,2.394,5.78,2.394
			c2.168,0,4.246-0.862,5.779-2.396l25.199-25.221l25.201,25.221c1.533,1.534,3.611,2.396,5.78,2.396
			c2.169,0,4.247-0.862,5.78-2.396l17.029-17.044V495.66z M398.678,495.66l43.199-46.454l43.199,46.454H398.678z M495.66,483.046
			l-45.613-49.05V239.024c0-4.513-3.658-8.17-8.17-8.17s-8.17,3.657-8.17,8.17v194.973l-45.613,49.05V27.908l17.028,17.044
			c1.533,1.534,3.612,2.396,5.78,2.396s4.247-0.862,5.78-2.396l17.025-17.042v178.434c0,4.513,3.658,8.17,8.17,8.17
			s8.17-3.657,8.17-8.17V27.91l17.023,17.042c1.533,1.534,3.611,2.396,5.78,2.396c2.168,0,4.247-0.862,5.78-2.396l17.029-17.044
			V483.046z"/>
	</g>
</g>
<g>
</g>
<g>
</g>
<g>
</g>
<g>
</g>
<g>
</g>
<g>
</g>
<g>
</g>
<g>
</g>
<g>
</g>
<g>
</g>
<g>
</g>
<g>
</g>
<g>
</g>
<g>
</g>
<g>
</g>
</svg>
